<svg xmlns="http://www.w3.org/2000/svg" width="300" height="200" viewBox="0 0 300 200"><rect width="100%" height="100%" fill="#DDDDDD"/><path fill="#999999" d="M86.915 57.96h5.21v31.81h-3.03q-.71 0-1.18-.23t-.91-.78l-16.61-21.21q.13 1.45.13 2.68v19.54h-5.21V57.96h3.1q.37 0 .65.03.27.03.48.13.21.1.41.29.2.19.44.49l16.67 21.3q-.06-.77-.11-1.52-.04-.75-.04-1.38V57.96Zm21.43 8.89q2.51 0 4.56.81 2.06.81 3.52 2.31 1.47 1.5 2.26 3.65.79 2.16.79 4.82 0 2.68-.79 4.84-.79 2.16-2.26 3.67-1.46 1.52-3.52 2.34-2.05.81-4.56.81-2.53 0-4.6-.81-2.07-.82-3.53-2.34-1.46-1.51-2.27-3.67-.8-2.16-.8-4.84 0-2.66.8-4.82.81-2.15 2.27-3.65t3.53-2.31q2.07-.81 4.6-.81Zm0 19.07q2.81 0 4.17-1.89 1.35-1.89 1.35-5.55 0-3.65-1.35-5.56-1.36-1.92-4.17-1.92-2.86 0-4.24 1.93-1.37 1.92-1.37 5.55t1.37 5.54q1.38 1.9 4.24 1.9Zm32.76-.77h5.98q1.65 0 2.77-.4 1.12-.39 1.8-1.05.67-.66.96-1.54.3-.88.3-1.87 0-1.04-.33-1.86-.33-.83-1.03-1.41-.71-.58-1.82-.89-1.11-.31-2.67-.31h-5.96v9.33Zm5.03-22.62h-5.03v9.2h4.7q3.04 0 4.59-1.1 1.55-1.1 1.55-3.5 0-2.48-1.41-3.54-1.4-1.06-4.4-1.06Zm-10.95-4.57h10.95q3.13 0 5.35.59 2.22.6 3.64 1.7t2.08 2.66q.66 1.56.66 3.52 0 1.12-.33 2.14-.33 1.03-1.02 1.92-.7.89-1.76 1.61-1.07.73-2.54 1.24 6.55 1.47 6.55 7.08 0 2.02-.77 3.74-.77 1.72-2.24 2.96-1.48 1.24-3.63 1.95-2.16.7-4.93.7h-12.01V57.96Zm38.1 8.89q2.51 0 4.57.81 2.05.81 3.52 2.31 1.46 1.5 2.25 3.65.79 2.16.79 4.82 0 2.68-.79 4.84-.79 2.16-2.25 3.67-1.47 1.52-3.52 2.34-2.06.81-4.57.81-2.53 0-4.6-.81-2.06-.82-3.53-2.34-1.46-1.51-2.26-3.67-.81-2.16-.81-4.84 0-2.66.81-4.82.8-2.15 2.26-3.65 1.47-1.5 3.53-2.31 2.07-.81 4.6-.81Zm0 19.07q2.82 0 4.17-1.89t1.35-5.55q0-3.65-1.35-5.56-1.35-1.92-4.17-1.92-2.86 0-4.23 1.93-1.38 1.92-1.38 5.55t1.38 5.54q1.37 1.9 4.23 1.9Zm25.28-19.07q2.51 0 4.56.81 2.06.81 3.52 2.31 1.47 1.5 2.26 3.65.79 2.16.79 4.82 0 2.68-.79 4.84-.79 2.16-2.26 3.67-1.46 1.52-3.52 2.34-2.05.81-4.56.81-2.53 0-4.6-.81-2.07-.82-3.53-2.34-1.46-1.51-2.27-3.67-.8-2.16-.8-4.84 0-2.66.8-4.82.81-2.15 2.27-3.65t3.53-2.31q2.07-.81 4.6-.81Zm0 19.07q2.82 0 4.17-1.89t1.35-5.55q0-3.65-1.35-5.56-1.35-1.92-4.17-1.92-2.86 0-4.24 1.93-1.37 1.92-1.37 5.55t1.37 5.54q1.38 1.9 4.24 1.9Zm15.29-28.84h5.43V75.8h1.02q.55 0 .86-.14.32-.15.65-.59l5.61-6.93q.36-.46.78-.7.43-.24 1.12-.24h4.97l-7.02 8.38q-.75.99-1.63 1.52.46.33.83.77.36.44.69.94l7.52 10.96h-4.9q-.64 0-1.1-.21-.46-.21-.77-.76l-5.77-8.56q-.3-.5-.63-.66-.33-.15-.99-.15h-1.24v10.34h-5.43V57.08Zm-93.65 77.99q.48 0 .85.37l2.34 2.53q-1.94 2.4-4.77 3.68-2.82 1.27-6.78 1.27-3.55 0-6.37-1.21-2.83-1.21-4.83-3.36-2-2.16-3.07-5.15-1.07-2.99-1.07-6.54 0-3.58 1.15-6.56 1.14-2.98 3.22-5.14 2.08-2.16 4.96-3.36 2.88-1.19 6.38-1.19 3.48 0 6.17 1.14 2.7 1.14 4.59 2.99l-1.98 2.75q-.18.27-.45.46-.28.2-.76.2-.33 0-.68-.19-.36-.18-.77-.46-.42-.27-.97-.6-.55-.33-1.28-.61-.72-.27-1.68-.46t-2.21-.19q-2.14 0-3.91.76t-3.04 2.2q-1.28 1.44-1.98 3.52-.71 2.08-.71 4.74 0 2.69.76 4.78.76 2.09 2.06 3.52 1.3 1.43 3.06 2.19t3.78.76q1.21 0 2.19-.14.98-.13 1.8-.41.83-.29 1.56-.74.74-.45 1.47-1.11.22-.2.46-.32.24-.12.51-.12Zm16.39-15.42q2.5 0 4.56.81 2.06.81 3.52 2.31t2.26 3.65q.79 2.16.79 4.82 0 2.68-.79 4.84-.8 2.16-2.26 3.67-1.46 1.52-3.52 2.34-2.06.81-4.56.81-2.53 0-4.6-.81-2.07-.82-3.53-2.34-1.47-1.51-2.27-3.67t-.8-4.84q0-2.66.8-4.82.8-2.15 2.27-3.65 1.46-1.5 3.53-2.31t4.6-.81Zm0 19.07q2.81 0 4.16-1.89 1.36-1.89 1.36-5.55 0-3.65-1.36-5.56-1.35-1.92-4.16-1.92-2.86 0-4.24 1.93-1.37 1.92-1.37 5.55t1.37 5.54q1.38 1.9 4.24 1.9Zm31.35-18.72h4.29l-8.96 22.57h-4.93l-8.95-22.57h4.49q.61 0 1.02.28.41.29.54.73l4.36 12.06q.35 1.05.61 2.06.27 1.02.46 2.03.22-1.01.49-2.03.26-1.01.64-2.06l4.44-12.06q.15-.44.55-.73.4-.28.95-.28Zm11.46 8.69h10.25q0-1.06-.3-1.99-.29-.94-.89-1.64-.59-.71-1.51-1.11-.91-.41-2.12-.41-2.35 0-3.71 1.34-1.35 1.34-1.72 3.81Zm13.86 3.28h-13.97q.13 1.73.61 3 .49 1.26 1.28 2.09.79.82 1.88 1.23 1.09.41 2.41.41t2.28-.31q.95-.31 1.67-.68.71-.38 1.25-.68.54-.31 1.05-.31.68 0 1.01.5l1.56 1.98q-.9 1.06-2.02 1.77-1.12.72-2.35 1.15-1.22.43-2.48.6-1.27.18-2.45.18-2.36 0-4.38-.78-2.03-.78-3.52-2.31-1.5-1.53-2.36-3.79-.85-2.25-.85-5.22 0-2.31.74-4.34.75-2.04 2.15-3.55 1.4-1.5 3.41-2.38 2.01-.88 4.54-.88 2.14 0 3.94.68 1.8.68 3.1 1.99t2.04 3.21q.73 1.9.73 4.35 0 1.23-.26 1.66-.26.43-1.01.43Zm10.14-10.61.33 2.55q1.06-2.02 2.51-3.18 1.45-1.15 3.43-1.15 1.56 0 2.51.68l-.35 4.07q-.11.4-.32.56-.21.17-.56.17-.33 0-.98-.11-.65-.11-1.27-.11-.9 0-1.6.26-.71.27-1.27.76-.56.5-.99 1.2-.43.7-.8 1.61v13.9h-5.44V120h3.19q.84 0 1.17.29.33.3.44 1.07Z"/></svg>